<svg preserveAspectRatio="none" overflow="visible" style="display: block;" width="20" height="20" viewBox="0 0 20 20" fill="none" xmlns="http://www.w3.org/2000/svg">
<g id="ant-design:arrow-right-outlined">
<path id="Vector" d="M16.9736 9.52747L9.59473 3.12317C9.53809 3.07434 9.46582 3.047 9.38965 3.047H7.66113C7.5166 3.047 7.4502 3.22668 7.55957 3.32043L14.3994 9.25793H2.96973C2.88379 9.25793 2.81348 9.32825 2.81348 9.41418V10.5861C2.81348 10.672 2.88379 10.7423 2.96973 10.7423H14.3975L7.55762 16.6798C7.44824 16.7755 7.51465 16.9532 7.65918 16.9532H9.44629C9.4834 16.9532 9.52051 16.9396 9.54785 16.9142L16.9736 10.4728C17.0412 10.414 17.0955 10.3414 17.1326 10.2598C17.1698 10.1783 17.189 10.0897 17.189 10.0001C17.189 9.91052 17.1698 9.82196 17.1326 9.74042C17.0955 9.65888 17.0412 9.58626 16.9736 9.52747Z" fill="white"/>
</g>
</svg>
