<svg preserveAspectRatio="none" overflow="visible" style="display: block;" width="48.4957" height="67.2308" viewBox="0 0 48.4957 67.2308" fill="none" xmlns="http://www.w3.org/2000/svg">
<g id="Group">
<path id="Vector" d="M44.0085 1H4.48718C2.56126 1 1 2.56126 1 4.48718V14.9487C1 16.8746 2.56126 18.4359 4.48718 18.4359H44.0085C45.9345 18.4359 47.4957 16.8746 47.4957 14.9487V4.48718C47.4957 2.56126 45.9345 1 44.0085 1Z" stroke="#FF9903" stroke-width="2" stroke-linecap="round" stroke-linejoin="round"/>
<path id="Vector_2" d="M10.2991 9.71796H38.1965" stroke="#FF9903" stroke-width="2" stroke-linecap="round" stroke-linejoin="round"/>
<path id="Vector_3" d="M10.2991 18.4359V32.3846C10.2991 38.1966 38.1965 38.1966 38.1965 32.3846V18.4359" stroke="#FF9903" stroke-width="2" stroke-linecap="round" stroke-linejoin="round"/>
<path id="Vector_4" d="M24.2479 32.9658C25.2108 32.9658 25.9915 32.1852 25.9915 31.2222C25.9915 30.2592 25.2108 29.4786 24.2479 29.4786C23.2849 29.4786 22.5043 30.2592 22.5043 31.2222C22.5043 32.1852 23.2849 32.9658 24.2479 32.9658Z" fill="#FF9903"/>
<path id="Vector_5" d="M14.9487 39.3588C14.9487 44.0084 33.547 44.0084 33.547 39.3588" stroke="#FF9903" stroke-width="2" stroke-linecap="round" stroke-linejoin="round"/>
<path id="Vector_6" d="M17.2736 42.846V47.4956L24.2479 55.6323L31.2223 47.4956V42.846" stroke="#FF9903" stroke-width="2" stroke-linecap="round" stroke-linejoin="round"/>
<path id="Vector_7" d="M24.2478 55.6325V66.094" stroke="#FF9903" stroke-width="2" stroke-linecap="round" stroke-linejoin="round"/>
<path id="Vector_8" d="M10.3676 61C12.6923 67.9744 35.9402 67.9744 38.265 61" stroke="#FF9903" stroke-width="2" stroke-linecap="round" stroke-linejoin="round"/>
</g>
</svg>
